<?xml version="1.0" standalone="no"?>
<!DOCTYPE svg PUBLIC "-//W3C//DTD SVG 20010904//EN"
 "http://www.w3.org/TR/2001/REC-SVG-20010904/DTD/svg10.dtd">
<svg version="1.0" xmlns="http://www.w3.org/2000/svg"
 width="522.000000pt" height="522.000000pt" viewBox="0 0 522.000000 522.000000"
 preserveAspectRatio="xMidYMid meet">
<metadata>
Created by potrace 1.14, written by Peter Selinger 2001-2017
</metadata>
<g transform="translate(0.000000,522.000000) scale(0.100000,-0.100000)"
fill="#000000" stroke="none">
<path d="M4816 5108 c-84 -267 -127 -463 -206 -928 -33 -190 -77 -446 -98
-570 -39 -219 -65 -416 -80 -610 l-8 -95 -52 103 c-76 149 -163 292 -241 396
l-68 91 -6 130 c-9 218 -27 280 -136 475 -148 263 -267 387 -561 579 -252 165
-469 243 -795 286 -502 66 -948 -70 -1385 -422 -230 -185 -429 -441 -580 -748
-116 -235 -169 -425 -192 -686 -25 -289 37 -539 188 -766 l64 -95 -27 -82
c-21 -66 -27 -105 -31 -208 -2 -74 0 -134 6 -144 7 -13 9 -6 5 27 -11 97 14
223 83 430 37 110 68 198 70 197 1 -2 -1 -66 -5 -143 -5 -77 -8 -237 -7 -355
1 -188 4 -220 20 -253 14 -27 27 -40 48 -44 28 -5 45 -20 35 -29 -14 -14 -180
85 -220 130 -18 21 -18 20 -2 -6 22 -35 74 -75 160 -120 l69 -36 -29 -13 c-53
-23 -129 -85 -198 -159 -69 -75 -167 -212 -167 -234 0 -33 134 -160 250 -238
l25 -16 -60 -53 c-175 -153 -325 -332 -325 -386 0 -18 6 -23 28 -23 15 0 63
-13 107 -29 91 -33 100 -27 -103 -61 -67 -11 -173 -32 -235 -46 -61 -14 -122
-28 -134 -31 -16 -4 -23 -13 -23 -30 0 -18 4 -23 18 -19 161 48 610 126 723
126 28 0 59 5 69 10 35 19 321 52 385 45 102 -11 285 -55 400 -97 173 -63 449
-204 512 -262 30 -27 52 -53 50 -59 -2 -6 -19 -16 -38 -23 l-34 -12 40 -1 c22
-1 72 8 110 19 103 29 508 126 600 144 214 41 462 61 951 77 494 16 703 -1
964 -76 25 -7 72 -20 105 -30 74 -21 324 -105 348 -117 13 -7 17 -4 17 11 0
14 -15 25 -62 43 -59 23 -63 26 -60 54 2 16 4 81 5 144 1 101 -2 124 -25 187
-47 132 -185 305 -310 391 -26 18 -50 43 -54 55 -3 13 4 56 15 97 12 41 21 87
21 102 0 29 13 37 26 17 4 -7 7 -37 6 -68 -1 -47 1 -52 9 -31 14 35 16 35 36
11 21 -25 25 -23 84 49 92 110 199 283 199 322 0 9 -12 26 -27 37 -16 12 -33
25 -39 30 -33 27 -185 116 -275 161 -57 29 -106 54 -108 56 -3 3 37 47 88 98
105 105 106 109 52 183 -32 45 -145 133 -234 183 l-55 31 -9 77 c-15 149 -2
292 28 292 5 0 27 -11 48 -24 43 -28 139 -62 147 -53 3 3 -27 21 -68 40 -93
44 -170 101 -299 224 -94 89 -105 81 -17 -13 24 -26 31 -45 39 -103 5 -39 13
-104 19 -143 17 -131 13 -193 -14 -225 -28 -33 -41 -27 -26 11 5 15 9 66 9
114 l-1 87 -14 -98 c-15 -114 -30 -151 -63 -155 -22 -3 -23 -1 -16 36 7 43
-11 161 -28 177 -10 10 -6 -31 9 -105 11 -56 -10 -24 -40 60 -26 74 -27 78
-17 199 9 112 8 134 -11 223 -11 54 -25 98 -31 98 -5 0 -6 -10 -3 -22 15 -48
19 -298 6 -375 -14 -89 -38 -185 -48 -195 -4 -4 -6 24 -4 62 5 78 -6 220 -16
220 -4 0 -6 -53 -4 -117 5 -160 -32 -364 -86 -483 -28 -63 -159 -250 -168
-240 -5 6 -73 -110 -74 -125 0 -5 14 11 30 38 17 26 59 77 95 114 l64 67 11
-29 c29 -79 31 -89 61 -223 11 -50 10 -55 -12 -78 -34 -36 -41 -30 -35 34 l6
57 -13 -55 c-22 -99 -71 -168 -191 -273 -152 -133 -180 -147 -324 -158 -410
-32 -700 -84 -960 -173 -71 -25 -74 -25 -167 -11 -101 15 -125 24 -163 59 -18
16 -38 21 -81 22 -33 1 -76 10 -102 21 -71 32 -246 149 -253 170 -8 27 -26
153 -26 191 l0 34 53 -45 c47 -41 247 -162 247 -151 0 3 -17 26 -39 52 -21 26
-46 62 -56 80 -9 19 -19 31 -22 28 -3 -3 7 -26 21 -52 14 -26 24 -49 21 -52
-8 -8 -152 106 -194 154 -21 24 -68 85 -104 137 -37 51 -75 102 -86 111 -19
17 -19 17 -14 -3 11 -44 -7 -18 -21 29 -8 28 -24 64 -36 79 -11 16 -20 31 -20
34 0 3 -13 34 -29 69 -57 123 -105 326 -126 538 -11 105 -13 114 -14 59 -1
-77 31 -300 58 -409 22 -85 87 -270 121 -345 28 -62 171 -369 210 -450 18 -37
33 -92 40 -145 21 -154 119 -443 186 -547 32 -50 32 -69 2 -40 -7 6 -34 28
-59 49 -58 47 -134 126 -199 208 -61 77 -77 93 -61 63 10 -19 125 -169 140
-183 3 -3 22 -22 40 -43 51 -54 22 -45 -43 14 -92 84 -200 240 -301 434 -52
102 -70 125 -60 80 24 -105 49 -195 74 -265 15 -44 24 -80 20 -80 -12 0 -71
121 -98 198 -115 337 -164 650 -185 1176 l-12 301 -7 -170 c-4 -93 -11 -185
-17 -204 -21 -72 -59 -311 -66 -408 -6 -94 -5 -103 15 -129 27 -34 29 -94 4
-93 -23 1 -132 37 -114 38 19 1 9 44 -29 122 -43 90 -68 181 -79 288 -13 117
-26 135 -18 23 8 -105 -2 -218 -15 -181 -41 108 -48 311 -23 589 38 415 123
730 276 1030 152 297 416 570 704 727 9 5 -78 -92 -96 -107 -4 -3 -35 -38 -69
-79 -102 -123 -209 -284 -243 -366 -11 -28 -11 -27 107 149 111 165 173 245
241 310 206 197 332 243 545 198 91 -19 119 -20 91 -3 -27 17 11 22 191 26
101 2 206 8 233 14 80 16 153 13 270 -13 133 -28 194 -51 288 -107 103 -62
275 -237 362 -369 64 -96 215 -384 215 -408 0 -6 5 -14 10 -17 10 -6 -6 40
-48 136 -45 104 -166 305 -244 406 -53 70 -58 79 -27 61 49 -30 203 -244 374
-518 148 -239 504 -765 555 -820 l50 -55 -55 84 c-30 46 -58 99 -61 119 -8 43
1 289 16 427 13 122 40 291 85 535 19 102 55 309 80 460 68 410 139 739 209
963 13 40 13 47 1 47 -9 0 -26 -39 -49 -112z m-2291 -173 c237 -29 425 -78
565 -146 33 -16 62 -29 65 -29 20 0 299 -182 360 -235 12 -11 44 -38 71 -60
58 -48 100 -94 97 -106 -2 -5 3 -9 11 -9 8 0 18 -5 22 -12 5 -7 3 -8 -6 -3
-10 6 -11 4 -5 -11 4 -10 10 -29 13 -42 4 -20 1 -23 -21 -20 -13 2 -32 10 -41
17 -27 22 -18 -5 13 -41 27 -31 91 -155 91 -176 0 -5 9 -29 19 -53 11 -24 26
-81 33 -127 l14 -83 -37 43 c-21 24 -46 58 -56 76 -9 17 -21 32 -26 32 -4 0
-5 5 -2 10 3 6 -2 22 -13 38 -10 15 -24 41 -31 59 -7 18 -19 37 -26 43 -10 8
-12 4 -11 -20 1 -17 6 -34 11 -38 6 -4 17 -16 25 -26 13 -18 13 -19 0 -11 -34
21 -69 58 -63 68 3 6 1 7 -5 3 -5 -3 -32 10 -59 31 -130 99 -270 173 -378 199
-17 3 -52 23 -80 44 -27 21 -90 59 -140 85 -49 26 -102 56 -116 66 -57 40
-167 91 -214 99 -27 5 -69 13 -92 18 -67 15 -50 -1 35 -32 86 -32 358 -165
339 -166 -4 0 -40 6 -80 14 -111 23 -333 39 -422 31 -92 -7 -236 -37 -328 -66
-94 -31 -297 -120 -342 -150 -73 -50 -50 -8 48 87 53 52 99 100 104 107 4 7
29 30 55 52 26 21 46 41 44 43 -7 7 -148 -79 -229 -140 -43 -32 -91 -65 -105
-72 -56 -29 -118 -94 -203 -211 -48 -66 -107 -141 -131 -168 -51 -56 -54 -60
-92 -111 -22 -29 -31 -35 -37 -25 -7 11 -9 10 -9 -3 0 -26 -20 -22 -21 5 0 21
-1 21 -10 2 -8 -17 -8 -16 -3 5 3 14 8 40 11 59 4 21 12 35 24 38 9 3 20 12
23 20 7 18 -30 8 -57 -15 -16 -14 -17 -14 -14 6 2 12 12 29 23 36 16 12 17 18
7 35 -10 15 -10 21 0 24 8 4 8 6 1 6 -19 1 -295 -284 -345 -356 -32 -45 -35
-57 -17 -51 12 4 48 -26 48 -39 -1 -14 -50 -44 -60 -38 -6 3 -7 -1 -4 -9 3 -9
12 -16 19 -16 17 0 28 -34 20 -60 -4 -12 -1 -27 5 -35 7 -8 13 -47 13 -87 1
-62 -3 -80 -25 -118 l-27 -44 -19 44 c-11 25 -22 52 -25 60 -4 11 -6 10 -6 -4
-1 -16 -7 -18 -57 -14 -47 4 -57 2 -65 -14 -8 -15 -14 -17 -24 -8 -10 8 -14 8
-18 -2 -2 -7 -3 -4 -1 8 2 12 1 24 -3 27 -8 9 -60 -48 -80 -88 -19 -35 -29
-120 -13 -110 6 4 10 -8 10 -29 0 -19 -5 -36 -11 -38 -7 -2 -7 -12 1 -33 6
-16 8 -40 5 -53 -4 -15 2 -37 15 -59 11 -19 20 -47 20 -62 0 -49 38 -209 61
-253 33 -64 89 -151 111 -170 18 -15 19 -21 8 -52 -6 -20 -13 -36 -15 -36 -3
0 -21 26 -43 58 -193 289 -236 627 -137 1057 69 294 294 699 524 940 216 227
552 444 816 528 221 70 465 91 700 62z m216 -516 c109 -9 143 -15 184 -35 76
-38 74 -43 -9 -24 -174 42 -447 53 -606 25 -191 -33 -391 -115 -619 -252 -124
-75 -271 -170 -281 -183 -3 -3 -21 -17 -40 -30 -19 -13 -65 -53 -102 -89 -38
-35 -68 -60 -68 -54 0 6 20 38 45 72 77 105 357 313 553 412 117 58 333 131
452 152 103 18 308 21 491 6z m-88 -70 c151 -13 165 -17 107 -35 -36 -11 -57
-11 -103 -2 -77 15 -227 4 -302 -21 -53 -18 -67 -19 -122 -8 -35 6 -63 14 -63
18 0 5 119 39 185 53 40 8 179 6 298 -5z m1141 -111 c17 -28 17 -31 3 -19 -12
9 -17 10 -17 2 0 -7 -4 -9 -10 -6 -6 4 -7 -1 -4 -12 5 -16 4 -16 -10 1 -9 11
-16 25 -16 30 0 6 -5 4 -10 -4 -8 -13 -11 -13 -27 3 -16 16 -16 17 4 17 24 0
39 28 23 44 -5 5 -10 14 -10 20 0 15 53 -39 74 -76z m6 -59 c0 -4 -11 -9 -25
-11 -30 -6 -31 -4 -7 20 15 16 31 12 32 -9z m69 -63 c9 -11 9 -16 0 -22 -7 -4
-9 -3 -5 4 3 6 -2 15 -11 21 -10 6 -13 11 -7 11 6 0 17 -6 23 -14z m13 -58
c-7 -7 -12 -8 -12 -2 0 6 3 14 7 17 3 4 9 5 12 2 2 -3 -1 -11 -7 -17z m-2607
-295 c-81 -94 -158 -208 -221 -328 -26 -49 -49 -84 -51 -78 -5 15 77 190 115
245 42 61 201 238 213 238 6 0 -19 -35 -56 -77z m-105 18 c0 -5 -33 -30 -42
-31 -4 0 -4 33 1 35 6 3 41 0 41 -4z m2837 -65 c-6 -13 -17 -21 -25 -19 -10 4
-9 10 4 24 24 26 34 24 21 -5z m-12 -46 c3 -5 1 -10 -4 -10 -6 0 -11 5 -11 10
0 6 2 10 4 10 3 0 8 -4 11 -10z m-2895 -14 c0 -3 -4 -8 -10 -11 -5 -3 -10 -1
-10 4 0 6 5 11 10 11 6 0 10 -2 10 -4z m-20 -38 c0 -13 -23 -5 -28 10 -2 7 2
10 12 6 9 -3 16 -11 16 -16z m2981 -149 c54 -70 137 -191 184 -269 84 -139
200 -368 192 -377 -3 -2 -78 111 -168 251 -90 141 -206 320 -256 397 -140 214
-120 213 48 -2z m-3071 -3 c0 -2 -8 -10 -17 -17 -16 -13 -17 -12 -4 4 13 16
21 21 21 13z m-20 -86 c0 -5 -5 -10 -11 -10 -5 0 -7 5 -4 10 3 6 8 10 11 10 2
0 4 -4 4 -10z m-163 -592 c-3 -8 -6 -5 -6 6 -1 11 2 17 5 13 3 -3 4 -12 1 -19z
m3689 -257 c-6 -44 -52 -158 -61 -150 -4 4 -45 260 -45 281 0 5 25 -12 56 -39
55 -47 56 -48 50 -92z m-277 -248 c17 -68 50 -180 72 -250 58 -184 86 -318
100 -478 13 -153 8 -310 -9 -341 -10 -17 -11 -16 -12 11 -1 19 -10 -4 -25 -60
-13 -49 -28 -103 -34 -119 -20 -50 -2 -41 19 10 29 70 83 174 90 174 15 0 51
-49 60 -81 13 -45 13 -129 -1 -168 -14 -40 -76 -81 -123 -81 -59 0 -236 38
-236 50 0 5 18 21 40 37 29 20 57 56 97 127 31 54 60 114 66 133 8 26 15 33
29 30 24 -7 32 8 13 26 -20 21 -19 57 1 57 14 0 15 7 10 38 -3 20 -6 62 -7 92
-1 43 -3 49 -9 30 -4 -14 -8 -45 -9 -69 -1 -61 -28 -163 -62 -239 -38 -85
-164 -232 -233 -271 -29 -17 -56 -31 -60 -31 -3 0 8 27 25 61 83 164 94 469
25 749 -16 64 -20 27 -6 -55 12 -71 -4 -77 -20 -8 -7 32 -23 89 -35 128 -21
63 -22 72 -9 98 18 34 34 27 35 -16 1 -18 5 -43 9 -57 6 -16 8 12 7 80 -1 90
3 118 27 193 15 49 43 116 62 149 19 34 42 88 51 120 9 32 17 57 19 55 1 -1
16 -57 33 -124z m242 -23 c3 -53 2 -55 -22 -52 -36 5 -45 19 -26 40 9 10 17
28 17 39 0 12 3 29 6 38 11 27 22 -2 25 -65z m-58 -101 c116 -59 212 -127 282
-201 80 -83 91 -111 55 -143 -19 -17 -20 -17 -20 0 0 56 -165 214 -297 284
-21 11 -54 34 -73 51 -31 28 -32 30 -12 30 13 0 42 -10 65 -21z m48 -172 c123
-91 205 -173 215 -213 4 -17 1 -31 -11 -44 -25 -28 -32 -25 -39 18 -9 56 -81
141 -152 179 -78 42 -140 96 -147 128 -6 35 0 32 134 -68z m-3301 -138 c0 -21
-3 -39 -7 -39 -5 0 -8 20 -8 44 0 25 3 42 7 40 5 -3 8 -23 8 -45z m-347 -66
c24 -83 21 -108 -7 -55 -8 16 -17 57 -20 93 -7 75 -4 71 27 -38z m3660 12 c23
-22 35 -45 24 -45 -2 0 -18 16 -37 35 -39 40 -29 48 13 10z m-3338 -4 c3 -5 1
-12 -5 -16 -5 -3 -10 1 -10 9 0 18 6 21 15 7z m53 -153 c7 -56 22 -141 33
-190 11 -48 19 -94 16 -101 -6 -16 -61 105 -76 170 -21 85 -16 223 8 223 4 0
13 -46 19 -102z m3288 22 c41 -54 50 -58 93 -36 26 14 28 13 58 -20 16 -19 27
-34 24 -34 -3 0 5 -6 18 -13 28 -14 98 -114 142 -203 37 -74 47 -155 27 -204
l-15 -35 -7 67 c-4 39 -15 77 -25 90 -10 13 -20 45 -23 71 -3 27 -11 54 -18
60 -9 9 -11 -11 -7 -94 9 -169 -22 -359 -63 -384 -5 -3 -20 1 -34 10 -19 13
-27 32 -40 93 -24 123 -31 145 -44 150 -7 2 -12 -6 -12 -20 -1 -23 -1 -23 -15
3 -8 15 -24 68 -35 119 -11 50 -28 108 -36 128 -14 32 -42 221 -44 290 0 30 9
23 56 -38z m-3536 -50 c11 -22 18 -40 15 -40 -6 0 -45 62 -45 73 0 16 11 5 30
-33z m674 -62 c26 -37 56 -117 55 -148 -1 -13 -1 -13 -6 0 -3 8 -26 55 -49
104 -58 116 -58 122 0 44z m-793 -135 c-151 -153 -195 -217 -195 -284 0 -47
-1 -48 -20 -35 -29 18 -33 84 -9 130 42 81 225 267 308 314 54 30 24 -15 -84
-125z m4207 -72 c26 -22 28 -39 7 -47 -14 -6 -115 57 -208 129 -33 26 -87 95
-87 112 0 6 252 -164 288 -194z m-3968 140 c0 -4 -28 -32 -62 -61 -102 -86
-204 -195 -238 -254 -60 -105 -71 -71 -14 43 25 49 57 92 102 137 99 95 212
168 212 135z m101 -92 c6 -12 29 -41 51 -65 54 -58 103 -210 97 -299 -7 -109
-4 -399 5 -473 5 -47 5 -72 -2 -72 -15 0 -22 26 -29 109 -7 89 -21 71 -22 -30
l-1 -66 -92 4 c-79 5 -96 8 -111 27 l-18 21 7 -27 c5 -23 3 -28 -14 -28 -22 0
-32 17 -33 63 -1 18 -5 43 -9 57 -7 18 -8 5 -7 -43 1 -37 -1 -67 -4 -67 -26 0
-37 198 -17 299 37 190 75 338 103 406 19 44 42 108 51 143 19 67 27 74 45 41z
m2904 1 c-3 -5 -18 -10 -33 -10 -21 0 -24 2 -12 10 20 13 53 13 45 0z m15 -87
c0 -82 -17 -184 -41 -256 -11 -34 -22 -63 -23 -64 -5 -5 -90 40 -105 55 -61
60 -71 100 -50 190 18 71 43 94 129 118 86 24 90 22 90 -43z m-236 -65 c-10
-55 -10 -118 0 -140 7 -15 3 -18 -29 -18 -20 0 -45 5 -56 10 -39 22 -15 117
43 165 43 36 52 32 42 -17z m610 26 c9 -24 7 -28 -9 -14 -17 14 -20 30 -6 30
5 0 12 -7 15 -16z m-3459 -41 c-42 -73 -115 -182 -127 -189 -5 -3 -16 0 -24 8
-12 12 -8 22 29 73 46 64 130 155 142 155 4 0 -5 -21 -20 -47z m3928 -11 c38
-38 38 -38 17 -57 -20 -18 -21 -18 -45 5 -17 16 -25 34 -25 57 0 18 4 33 8 33
4 0 25 -17 45 -38z m-344 -204 c1 -31 -2 -35 -19 -31 -23 6 -24 9 -8 71 11 42
13 45 19 22 4 -14 7 -41 8 -62z m-3831 2 c-2 -5 -11 -2 -22 5 -12 9 -16 20
-12 31 6 16 8 15 22 -5 9 -12 14 -26 12 -31z m2858 -5 c178 -26 341 -60 358
-76 5 -5 4 -14 -4 -23 -10 -13 -38 -16 -149 -15 -199 0 -442 -31 -460 -59 -3
-5 -24 -12 -46 -14 -40 -5 -89 -21 -135 -43 -14 -7 -60 -24 -102 -40 -116 -41
-173 -71 -153 -78 17 -7 12 -27 -6 -27 -6 0 -7 5 -3 12 5 8 0 9 -17 4 -13 -4
-31 -8 -39 -9 -8 -1 -22 -9 -30 -18 -16 -16 -85 -51 -109 -55 -7 -2 -25 -13
-40 -26 -39 -35 -82 -62 -121 -78 -50 -20 -90 -66 -90 -102 0 -26 3 -30 23
-25 20 5 21 5 3 -6 -10 -7 -33 -24 -50 -40 -17 -15 -38 -27 -48 -27 -9 0 -23
-7 -31 -15 -8 -8 -18 -11 -23 -7 -5 4 -3 0 4 -9 10 -14 10 -18 -4 -23 -9 -4
-25 -4 -34 -1 -12 4 -17 0 -17 -12 0 -51 -2 -55 -27 -49 -25 6 -44 -8 -26 -19
5 -3 10 -1 10 6 0 7 3 9 7 6 3 -4 -2 -16 -11 -26 -19 -21 -33 -19 -75 8 l-23
15 25 22 25 22 -51 25 c-33 16 -54 22 -58 15 -4 -6 -13 -7 -20 -2 -10 6 -10 3
1 -11 15 -18 14 -18 -17 0 -18 11 -33 22 -33 25 0 4 -6 7 -12 7 -16 1 -195 93
-182 93 5 0 3 4 -3 8 -30 19 -18 49 37 91 30 22 59 41 64 41 5 0 17 7 26 15
16 14 23 13 76 -10 42 -19 72 -25 107 -23 l48 3 -65 33 c-63 32 -97 58 -59 46
15 -5 15 -4 3 4 -8 6 -18 8 -22 6 -4 -3 -13 -2 -19 1 -7 5 -3 15 11 30 18 19
27 22 47 14 16 -6 22 -6 18 1 -3 6 -14 10 -23 10 -11 0 -2 13 26 40 23 22 50
58 60 80 13 29 31 46 67 66 143 76 468 179 690 218 50 9 113 21 140 26 83 15
364 3 561 -25z m-1751 10 c-35 -16 -65 -19 -65 -6 0 10 29 18 70 19 24 0 24 0
-5 -13z m-373 -90 c31 -62 40 -87 31 -96 -8 -8 -19 11 -43 73 -18 45 -35 89
-37 96 -3 6 -3 12 0 12 3 0 25 -38 49 -85z m594 21 c92 -101 82 -184 -37 -301
-68 -67 -72 -69 -86 -50 -52 70 -162 358 -141 371 32 20 101 33 157 31 63 -3
65 -4 107 -51z m77 43 c12 -6 40 -30 63 -54 48 -52 45 -74 -14 -104 l-40 -20
-6 37 c-3 21 -24 60 -46 90 -22 29 -40 55 -40 57 0 9 62 5 83 -6z m-696 -203
c34 -53 34 -55 -7 -156 -32 -82 -72 -151 -84 -147 -6 2 -14 24 -18 48 -12 77
-21 342 -13 404 l7 59 42 -80 c23 -43 56 -101 73 -128z m3078 134 c-3 -5 6
-12 20 -16 14 -3 22 -11 18 -17 -3 -6 -1 -7 6 -3 13 8 108 -36 138 -63 10 -9
38 -31 63 -48 105 -72 230 -235 268 -349 25 -74 36 -177 27 -249 -7 -62 -13
-65 -78 -37 -23 11 -88 32 -143 48 -96 26 -103 30 -115 61 -7 18 -20 33 -28
33 -14 0 -14 2 -1 11 12 8 11 9 -5 7 -17 -2 -77 31 -95 52 -3 3 -22 14 -42 23
-21 10 -38 22 -38 27 0 6 -4 10 -9 10 -14 0 -111 67 -145 100 -27 27 -34 31
-52 29 -3 0 -14 9 -23 20 -10 11 -20 19 -22 17 -2 -3 -27 3 -55 13 -48 16 -51
18 -37 37 13 17 15 18 24 2 5 -9 33 -22 63 -29 40 -8 53 -16 49 -26 -3 -8 -2
-13 3 -12 14 3 48 -14 61 -30 6 -9 14 -13 18 -9 4 4 -4 19 -19 34 -20 22 -23
31 -13 42 9 11 7 17 -8 28 -11 8 -26 12 -33 9 -10 -3 -12 0 -8 10 3 10 0 15
-11 15 -22 0 -83 48 -83 66 0 7 -6 14 -14 14 -19 0 -27 25 -13 39 6 6 31 11
56 11 75 0 34 20 -86 42 -59 11 -109 24 -111 29 -2 5 -10 9 -18 9 -23 0 -7 17
30 35 31 15 38 15 92 -1 89 -25 176 -45 204 -46 14 0 19 -3 12 -5 -9 -3 -4
-10 13 -19 31 -16 61 -18 69 -5 4 5 -3 7 -13 4 -11 -3 -28 0 -38 6 -15 9 -13
10 12 5 29 -6 29 -6 10 9 -11 9 -15 17 -8 17 6 0 27 14 45 30 30 28 77 43 63
20z m-3695 -27 c0 -5 -16 -26 -36 -48 -69 -76 -239 -271 -269 -308 -24 -29
-35 -36 -52 -31 -13 4 -23 10 -23 14 0 24 265 318 320 356 34 24 60 31 60 17z
m1464 1 c20 -8 11 -24 -15 -24 -19 0 -25 11 -12 23 8 8 8 8 27 1z m-1361 -66
c-3 -18 -32 -67 -63 -108 -31 -41 -85 -117 -119 -168 -65 -97 -79 -110 -106
-95 -13 8 -4 26 58 114 87 124 217 289 229 289 4 0 5 -15 1 -32z m2910 20 c12
-36 -15 -47 -72 -27 -25 9 -29 14 -20 25 14 17 86 19 92 2z m-161 -4 c3 -3 4
-14 1 -25 -4 -15 -14 -19 -46 -19 -38 0 -40 1 -21 15 10 8 30 15 44 16 20 1
18 3 -10 9 l-35 7 31 2 c17 0 33 -2 36 -5z m-2132 -69 c-8 -13 -19 -25 -25
-27 -15 -5 -18 51 -4 68 11 13 14 13 28 -1 14 -13 14 -18 1 -40z m97 -75 c34
-33 89 -73 121 -88 33 -16 70 -36 83 -45 13 -10 31 -17 41 -17 34 0 18 -20
-62 -79 -88 -66 -118 -76 -178 -63 -41 10 -125 70 -136 98 -9 25 -7 137 4 154
8 12 14 10 38 -13 26 -25 72 -37 72 -19 0 4 -17 16 -37 27 -51 28 -61 47 -40
79 10 14 21 26 25 26 4 0 36 -27 69 -60z m2290 -16 c-3 -3 -12 -4 -19 -1 -8 3
-5 6 6 6 11 1 17 -2 13 -5z m-1117 -82 c0 -8 -31 -26 -65 -40 -17 -8 12 20 37
33 30 17 28 16 28 7z m-1360 -62 c-17 -32 -22 -18 -8 21 8 22 13 28 16 17 2
-9 -2 -27 -8 -38z m-526 3 c4 -16 9 -36 12 -45 4 -13 -3 -18 -31 -24 -20 -3
-38 -4 -41 -1 -6 6 38 97 47 97 4 0 10 -12 13 -27z m556 -38 c0 -7 14 -23 30
-35 58 -42 35 -48 -71 -20 l-37 10 31 33 c32 33 47 37 47 12z m-68 -17 c-7 -7
-12 -8 -12 -2 0 14 12 26 19 19 2 -3 -1 -11 -7 -17z m2401 7 c217 -18 390 -45
511 -80 100 -29 226 -88 256 -121 21 -22 20 -22 -63 7 -148 51 -237 69 -431
89 -238 25 -363 25 -696 0 -345 -25 -446 -40 -752 -114 -32 -7 -58 -12 -58
-11 0 5 160 96 210 118 160 73 243 93 455 112 207 18 349 18 568 0z m-849 -3
c2 -4 -4 -8 -14 -8 -10 0 -16 4 -14 8 3 4 9 8 14 8 5 0 11 -4 14 -8z m-1208
-134 c-20 -11 -44 1 -25 12 6 5 19 6 27 3 12 -5 12 -7 -2 -15z m2429 -27 c148
-23 344 -68 358 -81 5 -4 -1 -10 -12 -13 -12 -3 -21 -2 -21 3 0 11 -54 17
-320 34 -173 12 -275 13 -440 6 -413 -18 -660 -39 -830 -70 -58 -11 -143 -26
-190 -35 -104 -19 -436 -102 -461 -115 -22 -12 -39 -13 -39 -2 0 9 161 103
205 120 17 6 89 25 160 42 355 84 468 101 775 121 102 6 187 13 190 16 3 3
113 3 245 0 179 -3 276 -10 380 -26z"/>
<path d="M3677 4303 c-4 -3 -7 -11 -7 -17 0 -6 5 -4 10 4 8 13 10 12 10 -2 0
-10 5 -18 10 -18 6 0 10 4 10 9 0 13 -26 32 -33 24z"/>
<path d="M1225 4099 c-11 -17 1 -21 15 -4 8 9 8 15 2 15 -6 0 -14 -5 -17 -11z"/>
<path d="M1170 4054 c0 -14 3 -14 15 -4 8 7 15 14 15 16 0 2 -7 4 -15 4 -8 0
-15 -7 -15 -16z"/>
<path d="M3740 4266 c0 -2 6 -9 13 -15 10 -8 14 -7 14 4 0 8 -6 15 -14 15 -7
0 -13 -2 -13 -4z"/>
<path d="M2060 560 c-9 -6 -10 -10 -3 -10 6 0 15 5 18 10 8 12 4 12 -15 0z"/>
<path d="M2124 485 c11 -8 24 -15 30 -15 5 0 1 7 -10 15 -10 8 -23 14 -29 14
-5 0 -1 -6 9 -14z"/>
<path d="M1825 330 c3 -5 8 -10 11 -10 2 0 4 5 4 10 0 6 -5 10 -11 10 -5 0 -7
-4 -4 -10z"/>
<path d="M2196 164 c-5 -14 -4 -15 9 -4 17 14 19 20 6 20 -5 0 -12 -7 -15 -16z"/>
<path d="M2152 145 c-11 -12 -10 -15 3 -15 8 0 15 7 15 15 0 18 -2 18 -18 0z"/>
<path d="M4425 490 c-3 -5 -1 -10 4 -10 6 0 11 5 11 10 0 6 -2 10 -4 10 -3 0
-8 -4 -11 -10z"/>
<path d="M4455 460 c3 -5 11 -10 16 -10 6 0 7 5 4 10 -3 6 -11 10 -16 10 -6 0
-7 -4 -4 -10z"/>
<path d="M4538 413 c6 -2 18 -2 25 0 6 3 1 5 -13 5 -14 0 -19 -2 -12 -5z"/>
<path d="M4530 396 c0 -2 9 -6 20 -9 11 -3 20 -1 20 4 0 5 -9 9 -20 9 -11 0
-20 -2 -20 -4z"/>
<path d="M4590 390 c-13 -8 -12 -10 3 -10 9 0 17 5 17 10 0 12 -1 12 -20 0z"/>
<path d="M4680 320 c-9 -6 -10 -10 -3 -10 6 0 15 5 18 10 8 12 4 12 -15 0z"/>
<path d="M2726 4171 c155 -44 402 -272 532 -490 41 -69 101 -190 162 -328 13
-29 25 -51 27 -49 7 7 -105 254 -153 338 -170 299 -437 550 -583 547 l-46 0
61 -18z"/>
<path d="M2318 4146 c-110 -40 -218 -137 -320 -291 -77 -116 -123 -216 -183
-399 -53 -161 -87 -294 -114 -445 -24 -131 -27 -190 -5 -87 8 38 21 75 28 82
8 7 17 50 21 96 17 188 147 549 255 708 42 61 157 201 175 212 6 3 26 20 45
37 19 18 63 45 98 62 82 40 82 54 0 25z"/>
<path d="M3196 3315 c24 -165 36 -352 37 -575 1 -154 4 -211 10 -180 4 25 6
161 4 303 -2 142 -1 255 3 250 4 -4 36 -51 70 -103 150 -227 238 -346 248
-336 3 3 -7 23 -21 43 -32 46 -59 109 -64 146 -8 66 -234 549 -250 534 -4 -5
96 -232 168 -383 36 -74 58 -144 47 -144 -3 0 -20 21 -38 48 -19 26 -65 89
-103 140 -63 85 -70 98 -78 160 -4 37 -13 91 -19 121 -5 29 -10 55 -10 57 0 2
-4 4 -8 4 -5 0 -3 -38 4 -85z"/>
<path d="M3451 3280 c0 -8 4 -22 9 -30 12 -18 12 -2 0 25 -6 13 -9 15 -9 5z"/>
<path d="M1211 3108 c-24 -121 -51 -388 -51 -512 0 -97 11 -36 26 140 8 99 21
233 28 299 8 66 13 121 11 123 -2 2 -8 -20 -14 -50z"/>
<path d="M2427 3053 c-11 -10 -8 -55 2 -48 14 8 16 3 87 -203 63 -180 66 -191
71 -309 3 -67 10 -120 14 -117 17 10 -10 315 -40 464 -8 39 -9 34 -5 -30 l5
-75 -60 159 c-34 87 -62 161 -64 162 -2 2 -7 1 -10 -3z"/>
<path d="M1723 2885 c0 -44 2 -61 4 -37 2 23 2 59 0 80 -2 20 -4 1 -4 -43z"/>
<path d="M2411 2944 c0 -11 3 -14 6 -6 3 7 2 16 -1 19 -3 4 -6 -2 -5 -13z"/>
<path d="M2542 2920 c0 -14 2 -19 5 -12 2 6 2 18 0 25 -3 6 -5 1 -5 -13z"/>
<path d="M2402 2900 c0 -14 2 -19 5 -12 2 6 2 18 0 25 -3 6 -5 1 -5 -13z"/>
<path d="M3145 2863 c14 -33 17 -108 7 -143 -10 -34 -10 -33 -12 25 l-2 60
-13 -85 c-32 -216 -104 -429 -190 -560 -30 -46 -53 -85 -51 -87 7 -7 83 91
114 147 28 50 94 229 144 390 30 99 30 99 44 45 11 -45 12 -46 13 -17 2 80
-32 242 -51 242 -6 0 -7 -7 -3 -17z"/>
<path d="M2377 2753 c-25 -155 -69 -327 -88 -347 -5 -6 -9 -17 -9 -26 0 -20
-65 -157 -77 -161 -5 -2 -21 -30 -36 -62 -14 -32 -22 -55 -16 -52 17 11 82
119 122 205 22 47 44 87 49 88 4 2 6 8 3 12 -3 5 5 46 19 92 22 80 52 275 43
284 -2 3 -7 -12 -10 -33z"/>
<path d="M3665 2760 c2 -19 13 -110 22 -202 10 -93 21 -168 25 -168 4 0 4 24
1 53 -9 82 13 47 49 -79 29 -102 31 -120 31 -269 1 -126 -3 -169 -16 -204 -20
-51 -20 -54 -7 -46 15 9 66 113 81 165 7 25 16 49 21 54 4 6 8 48 7 95 -1 97
-9 82 -29 -54 -7 -44 -15 -86 -20 -94 -4 -7 -10 49 -13 125 -3 82 -14 182 -27
244 -22 106 -89 329 -116 385 l-14 30 5 -35z"/>
<path d="M4353 2530 c0 -30 2 -43 4 -27 2 15 2 39 0 55 -2 15 -4 2 -4 -28z"/>
<path d="M3203 2510 c0 -30 2 -43 4 -27 2 15 2 39 0 55 -2 15 -4 2 -4 -28z"/>
<path d="M2735 2481 c3 -18 5 -41 5 -51 0 -9 7 -17 15 -17 20 0 19 14 -5 62
l-20 40 5 -34z"/>
<path d="M3642 2445 c0 -11 4 -31 8 -45 l8 -25 0 25 c0 14 -3 34 -8 45 l-9 20
1 -20z"/>
<path d="M1957 2403 c-6 -10 -37 -114 -37 -125 0 -4 6 -8 14 -8 17 0 22 15 31
88 6 48 3 64 -8 45z"/>
<path d="M3211 2390 c0 -14 -4 -36 -7 -50 -5 -22 -4 -23 6 -7 6 9 9 32 7 50
-3 25 -4 26 -6 7z"/>
<path d="M2136 2337 c-38 -81 -159 -282 -198 -329 -38 -46 -32 -58 11 -22 56
47 125 161 186 308 42 103 43 133 1 43z"/>
<path d="M1770 2358 c0 -17 45 -288 56 -342 5 -25 8 -27 16 -12 6 11 6 27 0
44 -6 15 -20 90 -32 167 -12 77 -26 144 -31 150 -6 5 -9 3 -9 -7z"/>
<path d="M2217 2363 c-4 -3 -7 -13 -7 -22 1 -13 3 -13 11 2 11 19 8 33 -4 20z"/>
<path d="M2791 2330 c0 -8 4 -24 9 -35 5 -13 9 -14 9 -5 0 8 -4 24 -9 35 -5
13 -9 14 -9 5z"/>
<path d="M3702 2310 c0 -19 2 -27 5 -17 2 9 2 25 0 35 -3 9 -5 1 -5 -18z"/>
<path d="M2741 2260 c1 -8 5 -26 9 -40 l8 -25 1 25 c0 14 -4 32 -9 40 -9 13
-10 13 -9 0z"/>
<path d="M3685 2223 c-3 -27 -8 -61 -10 -78 -4 -23 -2 -26 5 -13 11 19 26 138
17 138 -3 0 -8 -21 -12 -47z"/>
<path d="M3394 2223 c-15 -15 -16 -34 -11 -153 6 -141 23 -231 51 -258 30 -31
40 -1 40 121 0 130 -9 187 -29 187 -17 0 -21 26 -5 32 11 4 -8 88 -21 88 -4 0
-15 -8 -25 -17z"/>
<path d="M2826 2175 c8 -37 14 -45 14 -19 0 10 -5 26 -10 34 -8 11 -9 7 -4
-15z"/>
<path d="M2330 2075 c-19 -23 -6 -191 25 -310 28 -108 33 -119 54 -106 11 7
14 35 15 108 1 134 -9 193 -35 193 -20 0 -27 26 -8 32 9 3 9 13 0 40 -16 48
-34 63 -51 43z"/>
<path d="M3856 1869 c-4 -23 -5 -44 -2 -46 2 -2 7 14 11 37 4 23 5 43 2 46 -2
3 -7 -14 -11 -37z"/>
<path d="M1263 1750 c3 -36 12 -85 21 -110 l15 -45 -6 84 c-3 46 -12 96 -20
110 -14 24 -14 22 -10 -39z"/>
<path d="M3841 1794 c0 -11 3 -14 6 -6 3 7 2 16 -1 19 -3 4 -6 -2 -5 -13z"/>
<path d="M1800 1761 c0 -5 5 -13 10 -16 6 -3 10 -2 10 4 0 5 -4 13 -10 16 -5
3 -10 2 -10 -4z"/>
<path d="M1780 1704 c0 -22 65 -207 68 -192 2 8 -11 55 -28 103 -29 84 -40
109 -40 89z"/>
<path d="M1304 1528 c7 -34 13 -44 21 -36 9 8 -7 68 -17 68 -6 0 -8 -13 -4
-32z"/>
<path d="M1950 1546 c0 -2 7 -9 15 -16 13 -11 14 -10 9 4 -5 14 -24 23 -24 12z"/>
<path d="M1328 1430 c2 -16 10 -34 17 -40 11 -9 11 -3 3 30 -12 46 -27 54 -20
10z"/>
<path d="M3073 1314 c-7 -3 -13 -10 -13 -15 0 -6 6 -7 17 0 10 5 26 5 41 0 18
-7 23 -6 20 3 -5 14 -44 20 -65 12z"/>
</g>
</svg>
